:SAMPLES-PER-SECOND 30
:FULLY-SPECIFIED
:DEGREES
583
root  80.4078 39.4749 4.16622 -179.377 24.0858 173.472
RightUpLeg  -5.40286 -16.7245 -12.4857
RightLeg  8.92658 -32.3153 1.23435
RightFoot  -0.0671042 -0.205885 2.0807
RightToes  -1.33073e-015 0 -3.6325e-017
Spine  3.4843 2.17429 7.92418
Spine1  3.95648 4.00018 -7.42059
HEad  -13.9068 19.7508 -16.4899
LeftShoulder1  -0.286609 4.22907 -33.3199
LeftArm  -5.91475 16.7768 -43.1004
LeftForeArm  42.4412 -46.9674 -8.92104
LeftHand  0.00490425 2.85875 -0.694885
RightShoulder  -1.17475 -6.56233 31.8729
RightArm  21.8617 -1.36699 39.4083
RightForeArm  21.5632 6.01449 9.91744
RightHand  0.042673 0.83823 0.702514
LeftUpLeg  -7.66506 9.53367 1.31851
LeftLeg  5.01934 36.337 -1.30891
LeftFoot  -0.363936 -0.0992821 1.07543
LeftToes  -1.63346e-009 7.54925e-011 9.86887e-012
584
root  80.0916 39.4572 3.98837 -178.93 20.3591 174.513
RightUpLeg  -3.91501 -16.6767 -12.595
RightLeg  8.26248 -35.8516 1.40338
RightFoot  0.399828 -0.266932 2.61914
RightToes  -1.33073e-015 0 -3.6325e-017
Spine  2.29411 2.02638 7.73509
Spine1  4.4007 3.79073 -7.29876
HEad  -12.7497 18.3197 -15.2956
LeftShoulder1  -0.427893 4.5713 -33.9553
LeftArm  -8.51466 16.8291 -43.094
LeftForeArm  40.73 -42.3022 -7.54697
LeftHand  -0.0332967 3.79738 0.702533
RightShoulder  -1.16441 -6.52674 31.9742
RightArm  23.8978 -2.4732 39.5532
RightForeArm  20.8004 7.72865 9.94983
RightHand  0.0746734 1.6591 1.09152
LeftUpLeg  -5.63036 11.8358 2.96953
LeftLeg  4.3071 45.3247 -2.85553
LeftFoot  -0.717966 -0.24843 2.71277
LeftToes  -1.63346e-009 7.54925e-011 9.86887e-012
585
root  79.6801 39.445 3.77316 -179.148 15.9916 175.544
RightUpLeg  -0.952727 -17.1744 -13.3308
RightLeg  6.3291 -39.4462 3.02622
RightFoot  1.01258 -0.355736 3.34988
RightToes  -1.33073e-015 0 -3.6325e-017
Spine  1.85996 1.58138 7.29374
Spine1  4.50007 3.27473 -7.16739
HEad  -11.7754 17.2369 -14.4208
LeftShoulder1  -0.425978 4.5796 -33.4389
LeftArm  -1.29079 14.6036 -41.17
LeftForeArm  28.3748 -34.4693 -6.02517
LeftHand  -0.0415227 4.75723 5.00363
RightShoulder  -1.16263 -6.53391 31.8221
RightArm  25.7509 -4.05069 39.7215
RightForeArm  17.2542 10.0855 9.43121
RightHand  0.0392533 2.40426 0.389111
LeftUpLeg  -3.92082 12.0566 3.59986
LeftLeg  4.86259 52.5311 -2.15323
LeftFoot  -0.496754 -0.0433816 0.491428
LeftToes  -1.63346e-009 7.54925e-011 9.86887e-012
586
root  79.1841 39.4086 3.48997 -179.248 11.6434 176.406
RightUpLeg  1.73615 -17.64 -14.2159
RightLeg  4.71258 -42.755 4.55281
RightFoot  1.65368 -0.439819 3.9553
RightToes  -1.33073e-015 0 -3.6325e-017
Spine  1.32353 1.27031 7.68522
Spine1  4.40977 3.12748 -8.25309
HEad  -10.6345 16.2131 -13.014
LeftShoulder1  -0.374231 4.46516 -32.7868
LeftArm  5.68479 12.7937 -39.8062
LeftForeArm  17.6848 -28.0578 -5.04731
LeftHand  0.0475429 6.8841 6.4976
RightShoulder  -1.33151 -6.90741 32.5867
RightArm  27.1922 -5.48506 39.0728
RightForeArm  13.6793 12.4659 8.51558
RightHand  -0.015889 2.54196 -0.461402
LeftUpLeg  -3.35887 12.5527 3.79068
LeftLeg  5.47266 53.6258 -2.20684
LeftFoot  -0.129323 -0.0637147 0.668443
LeftToes  -1.63346e-009 7.54925e-011 9.86887e-012
587
root  78.5983 39.3474 3.2282 -178.852 6.77612 176.331
RightUpLeg  2.73042 -18.6797 -15.8385
RightLeg  5.90161 -45.9438 3.89884
RightFoot  2.19928 -0.507823 4.4088
RightToes  -1.33073e-015 0 -3.6325e-017
Spine  -0.136772 1.16444 6.85046
Spine1  4.92493 3.00865 -8.35254
HEad  -10.2126 13.4538 -12.3186
LeftShoulder1  -0.318972 4.32041 -32.9761
LeftArm  1.37663 11.3724 -40.5655
LeftForeArm  20.8331 -20.947 -4.20613
LeftHand  0.0644673 8.13557 4.22262
RightShoulder  -1.48656 -7.26475 33.0238
RightArm  26.6278 -6.87158 38.5763
RightForeArm  11.1665 14.4295 7.3584
RightHand  0.0216416 3.69225 0.0349837
LeftUpLeg  -4.4752 12.9627 2.74255
LeftLeg  5.91537 48.5689 -3.1468
LeftFoot  -0.634946 -0.322206 3.47877
LeftToes  -1.63346e-009 7.54925e-011 9.86887e-012
588
root  77.9241 39.2779 2.93732 -179.409 2.41217 176.103
RightUpLeg  4.34977 -21.3082 -18.3514
RightLeg  8.86711 -46.2916 2.07028
RightFoot  2.4763 -0.363104 3.10896
RightToes  -1.33073e-015 0 -3.6325e-017
Spine  -0.523903 1.26476 6.18087
Spine1  5.7248 3.16273 -8.24624
HEad  -9.95132 11.0565 -11.6448
LeftShoulder1  -0.25127 4.13302 -33.7927
LeftArm  -5.99747 9.19385 -39.7943
LeftForeArm  27.0257 -13.6788 -5.68598
LeftHand  0.00901638 8.86181 1.99475
RightShoulder  -1.4014 -7.12351 32.2126
RightArm  24.3838 -8.37313 39.0774
RightForeArm  8.70008 15.4803 6.54648
RightHand  -0.0469829 4.13254 -0.850967
LeftUpLeg  -4.94619 12.3912 0.850236
LeftLeg  8.29182 44.8443 -0.91025
LeftFoot  -1.09241 -0.43375 4.89967
LeftToes  -1.63346e-009 7.54925e-011 9.86887e-012
589
root  77.2399 39.2101 2.65909 -179.658 -1.57623 175.96
RightUpLeg  5.33913 -25.5434 -20.5529
RightLeg  12.0541 -42.5436 -0.377133
RightFoot  1.39367 -0.232055 2.2904
RightToes  -1.33073e-015 0 -3.6325e-017
Spine  -0.247842 1.3196 5.071
Spine1  5.31389 3.09902 -7.62878
HEad  -9.63005 9.61258 -11.8961
LeftShoulder1  -0.367876 4.42499 -33.6492
LeftArm  -10.4796 8.45682 -39.721
LeftForeArm  30.4088 -8.56316 -5.57494
LeftHand  0.0243606 9.9462 2.47594
RightShoulder  -1.18602 -6.6479 31.1519
RightArm  22.1922 -9.77282 39.7668
RightForeArm  7.89151 15.8553 6.09656
RightHand  -0.0753965 4.65301 -1.16019
LeftUpLeg  -5.29545 9.6026 -1.30975
LeftLeg  9.70178 43.6811 1.37379
LeftFoot  -1.73524 -0.429143 5.23687
LeftToes  -1.63346e-009 7.54925e-011 9.86887e-012
590
root  76.5773 39.111 2.38908 -179.843 -4.82971 175.783
RightUpLeg  5.96068 -28.1534 -21.7001
RightLeg  11.9065 -31.9947 -0.832077
RightFoot  -2.15051 -0.457041 5.43955
RightToes  -1.33073e-015 0 -3.6325e-017
Spine  0.472264 1.50533 3.71553
Spine1  4.44389 3.10764 -7.15558
HEad  -9.13764 8.83111 -12.0343
LeftShoulder1  -0.621945 5.07039 -33.5288
LeftArm  -10.0549 7.81231 -38.5809
LeftForeArm  24.3603 -5.45222 -5.61648
LeftHand  0.479757 10.077 11.648
RightShoulder  -0.947609 -6.08916 30.097
RightArm  21.2819 -10.2542 40.5958
RightForeArm  6.72343 15.5058 6.19781
RightHand  -0.128787 4.96661 -1.74849
LeftUpLeg  -5.30393 8.74599 -2.84183
LeftLeg  11.0211 41.3223 2.31883
LeftFoot  -3.1598 -0.399176 5.84371
LeftToes  -1.63346e-009 7.54925e-011 9.86887e-012
591
root  75.9452 39.033 2.14713 179.586 -8.22681 175.594
RightUpLeg  5.46496 -26.8308 -21.4621
RightLeg  12.4706 -20.4082 -1.91855
RightFoot  -5.82923 -0.292593 5.12332
RightToes  -1.33073e-015 0 -3.6325e-017
Spine  1.27743 1.81699 3.72216
Spine1  4.44249 3.65462 -8.43417
HEad  -8.64709 8.13495 -11.1105
LeftShoulder1  -0.500074 4.86256 -30.6729
LeftArm  -9.69559 8.29403 -39.7554
LeftForeArm  29.2607 -4.27445 -5.5514
LeftHand  -0.0330199 7.87287 0.520838
RightShoulder  -1.05417 -6.33087 30.7426
RightArm  21.4203 -9.25039 40.4767
RightForeArm  7.32044 14.99 6.42665
RightHand  -0.137869 4.66421 -1.87859
LeftUpLeg  -4.47826 7.59571 -4.30637
LeftLeg  11.5132 39.4223 2.81949
LeftFoot  -4.45548 -0.336214 6.01244
LeftToes  -1.63346e-009 7.54925e-011 9.86887e-012
592
root  75.3527 38.9379 1.93205 179.453 -12.0917 175.471
RightUpLeg  3.15855 -20.869 -19.3383
RightLeg  14.8859 -11.906 -3.29273
RightFoot  -8.76 -0.116791 2.51591
RightToes  -1.33073e-015 0 -3.6325e-017
Spine  1.8915 1.73295 3.49609
Spine1  4.34069 3.66956 -9.26247
HEad  -8.17361 7.71265 -10.568
LeftShoulder1  -0.416403 4.63513 -30.6682
LeftArm  -8.42309 8.5428 -38.6902
LeftForeArm  29.7569 -4.63786 -6.35759
LeftHand  -0.0189143 11.2984 0.853923
RightShoulder  -1.03942 -6.30546 30.5379
RightArm  21.0574 -8.64953 41.204
RightForeArm  8.99743 15.1243 6.26944
RightHand  -0.0753348 4.30487 -1.1838
LeftUpLeg  -4.16319 6.04946 -5.89265
LeftLeg  12.2381 37.2517 3.80752
LeftFoot  -5.64825 -0.248583 5.68601
LeftToes  -1.63346e-009 7.54925e-011 9.86887e-012
